<svg xmlns="http://www.w3.org/2000/svg" viewBox="-9 -440.25 432 432" width="432pt" height="432pt">
  <g transform="matrix(1.000000,0.000000,0.000000,-1.000000,0.000000,-432.000000)" fill="black" stroke="black">
    <g fill="none" stroke-width="6.6">
      <ellipse cx="79.7212125" cy="-80.4706125" rx="16.7002875" ry="16.7001375"/>
      <ellipse cx="334.279125" cy="-80.470725" rx="16.699875" ry="16.700025"/>
      <ellipse cx="79.7212125" cy="-335.02875" rx="16.7002875" ry="16.70025"/>
    </g>
    <g stroke="none">
      <circle cx="79.72125" cy="-80.470875" r="3.6819375"/>
      <circle cx="334.27875" cy="-80.470875" r="3.6819375"/>
      <circle cx="79.720875" cy="-335.02875" r="3.6823125"/>
      <circle cx="108.0051" cy="-108.7551" r="4"/>
      <circle cx="89.9904" cy="-40.643" r="4"/>
      <circle cx="161.3572" cy="-109.8688" r="4"/>
      <circle cx="147.8334" cy="-80.8669" r="4"/>
      <circle cx="137.6906" cy="-59.1155" r="4"/>
      <circle cx="130.9287" cy="-44.6146" r="4"/>
      <circle cx="164.5537" cy="-49.3382" r="4"/>
      <circle cx="197.5872" cy="-100.161" r="4"/>
      <circle cx="189.2202" cy="-4.5263" r="4"/>
      <circle cx="222.688" cy="-28.435" r="4"/>
      <circle cx="224.7798" cy="-4.5263" r="4"/>
      <circle cx="243.2347" cy="-72.5204" r="4"/>
      <circle cx="247.3758" cy="-57.0656" r="4"/>
      <circle cx="252.6428" cy="-109.8688" r="4"/>
      <circle cx="287.3007" cy="-93.0687" r="4"/>
      <circle cx="300.3381" cy="-114.4119" r="4"/>
      <circle cx="311.6518" cy="-103.0982" r="4"/>
      <circle cx="328.2345" cy="-122.8607" r="4"/>
      <circle cx="341.3409" cy="-113.6835" r="4"/>
      <circle cx="374.107" cy="-90.7404" r="4"/>
      <circle cx="304.8812" cy="-162.1072" r="4"/>
      <circle cx="333.8831" cy="-148.5834" r="4"/>
      <circle cx="391.8868" cy="-121.5359" r="4"/>
      <circle cx="380.8666" cy="-161.1626" r="4"/>
      <circle cx="404.0489" cy="-154.9509" r="4"/>
      <circle cx="314.589" cy="-198.3372" r="4"/>
      <circle cx="338.4977" cy="-196.2454" r="4"/>
      <circle cx="386.315" cy="-192.062" r="4"/>
      <circle cx="410.2237" cy="-225.5298" r="4"/>
      <circle cx="404.0489" cy="-260.5491" r="4"/>
      <circle cx="355.6345" cy="-277.0594" r="4"/>
      <circle cx="391.8868" cy="-293.9641" r="4"/>
      <circle cx="282.7121" cy="-315.8781" r="4"/>
      <circle cx="216.4128" cy="-315.339" r="4"/>
      <circle cx="218.5046" cy="-339.2477" r="4"/>
      <circle cx="224.7798" cy="-410.9737" r="4"/>
      <circle cx="194.7982" cy="-347.2173" r="4"/>
      <circle cx="192.0092" cy="-379.0955" r="4"/>
      <circle cx="189.2202" cy="-410.9737" r="4"/>
      <circle cx="168.6948" cy="-350.707" r="4"/>
      <circle cx="140.4651" cy="-302.7716" r="4"/>
      <circle cx="92.3187" cy="-288.0507" r="4"/>
      <circle cx="39.893" cy="-324.7596" r="4"/>
      <circle cx="109.1188" cy="-253.3928" r="4"/>
      <circle cx="94.6178" cy="-260.1547" r="4"/>
      <circle cx="80.1169" cy="-266.9166" r="4"/>
      <circle cx="102.68" cy="-235.7025" r="4"/>
      <circle cx="99.411" cy="-217.1628" r="4"/>
      <circle cx="27.685" cy="-223.438" r="4"/>
      <circle cx="3.7763" cy="-225.5298" r="4"/>
      <circle cx="43.6241" cy="-193.4565" r="4"/>
      <circle cx="3.7763" cy="-189.9702" r="4"/>
      <circle cx="102.68" cy="-179.7975" r="4"/>
      <circle cx="56.3156" cy="-167.3742" r="4"/>
      <circle cx="9.9511" cy="-154.9509" r="4"/>
      <circle cx="109.1188" cy="-162.1072" r="4"/>
      <circle cx="72.8664" cy="-145.2025" r="4"/>
      <circle cx="79.2123" cy="-118.2721" r="4"/>
      <circle cx="66.1058" cy="-109.0949" r="4"/>
      <circle cx="39.893" cy="-90.7404" r="4"/>
    </g>
    <path d="M131.2879 -99.6219L117.5221 -79.9623M108.34485 -66.85585L99.1676 -53.7494M124.16685 -30.11365L120.78585 -22.8632M179.0475 -103.43L176.977 -95.7026M172.8359 -80.2478L168.6948 -64.793M156.2715 -18.42855L154.2009 -10.70115M196.1927 -84.22185L195.49545 -76.2523M194.10095 -60.3132L193.4037 -52.34365M192.0092 -36.4045L191.31195 -28.43495M216.4128 -100.16095L217.11005 -92.1914M219.2018 -68.28275L221.29355 -44.37405M234.9525 -103.43L239.0936 -87.9752M251.5169 -41.61075L253.5874 -33.88335M257.7285 -18.42855L259.7991 -10.70115M269.5475 -73.61645L283.0713 -44.6146M289.83315 -30.11365L293.21415 -22.8632M273.5349 -112.7284L278.1235 -106.17515M305.65515 -66.85585L310.2438 -60.3026M319.421 -47.1962L324.0096 -40.643M354.4474 -104.5062L361.0006 -99.9176M348.384 -141.82155L355.6345 -138.4406M370.1354 -131.6787L377.38585 -128.29775M311.32 -179.7975L319.0474 -177.727M349.957 -169.4448L365.41185 -165.3037M354.4368 -194.85095L362.40635 -194.1537M402.25415 -190.6675L410.2237 -189.9702M314.58905 -217.1628L322.5586 -217.86005M354.4368 -220.64905L386.31505 -223.43805M311.32 -235.7025L319.0474 -237.773M334.5022 -241.9141L349.957 -246.0552M365.41185 -250.1963L373.13925 -252.2669M304.88125 -253.39275L312.1317 -256.7737M326.63265 -263.5356L333.8831 -266.91655M370.1354 -283.8213L377.38585 -287.20225M302.0216 -274.2849L315.1281 -283.4621M252.64275 -305.63125L259.40465 -320.13215M266.16655 -334.6331L279.69035 -363.63495M286.45225 -378.13585L293.21415 -392.6368M234.9525 -312.07L237.023 -319.7974M241.1641 -335.2522L243.2347 -342.9796M249.4463 -366.16185L259.7991 -404.79885M219.89905 -355.1868L220.5963 -363.15635M221.9908 -379.0955L222.68805 -387.06505M197.5872 -315.33905L196.88995 -323.3086M179.0475 -312.07L176.977 -319.7974M164.5537 -366.16185L162.4831 -373.88925M158.342 -389.34405L154.2009 -404.79885M161.35725 -305.63125L157.9763 -312.8817M144.4525 -341.88355L130.9287 -370.8854M124.16685 -385.38635L120.78585 -392.6368M126.6993 -322.4313L122.1107 -328.9845M99.1676 -361.7506L89.9904 -374.857M113.6619 -301.0881L102.3482 -312.4018M79.2123 -297.2279L52.9994 -315.5824M58.3655 -277.0594L51.11505 -280.44035M29.36365 -290.58315L22.1132 -293.96415M71.7704 -243.9847L56.31555 -248.1258M33.13335 -254.3374L9.95115 -260.5491M83.47185 -218.5573L67.53275 -219.9518M51.59365 -221.3463L43.62405 -222.04355M99.41095 -198.3372L91.4414 -197.63995M67.53275 -195.5482L59.5632 -194.85095M27.68495 -192.06195L19.7154 -191.3647M79.4978 -173.5859L71.7704 -171.5153M40.86075 -163.2331L33.13335 -161.1626M94.61785 -155.34535L87.36735 -151.9644M36.61415 -128.29775L22.1132 -121.53585M105.42515 -136.6265L98.8719 -132.0379" fill="none" stroke-width="8" stroke-linecap="round"/>
  </g>
  <defs>
    <clipPath id="circleClip">
      <circle cx="207" cy="-224.25" r="88.5"/>
    </clipPath>
  </defs>
  <image href="/Author.png" x="118.5" y="-312.75" width="177" height="177" clip-path="url(#circleClip)"/>
</svg>
